<svg width="64" height="64" viewBox="0 0 64 64" fill="none" xmlns="http://www.w3.org/2000/svg">
<mask id="mask0" mask-type="alpha" maskUnits="userSpaceOnUse" x="0" y="0" width="64" height="64">
<path d="M32 0C14.306 0 0 14.306 0 32C0 49.694 14.306 64 32 64C49.694 64 64 49.694 64 32C64 14.306 49.694 0 32 0Z" fill="white"/>
</mask>
<g mask="url(#mask0)">
<circle cx="32" cy="32" r="32" fill="white"/>
<path fill-rule="evenodd" clip-rule="evenodd" d="M44.4654 48.2896C42.9781 47.5955 39.8608 46.6173 39.5476 44.2788C39.4217 43.3135 39.3571 42.3411 39.3542 41.3674C39.3542 40.0957 39.3542 38.7914 39.4924 37.4312C37.8117 40.6035 35.0305 42.6298 30.9922 42.5553C28.1603 42.4947 25.6691 40.119 24.0529 36.9653C24.2577 38.5588 24.3822 40.1618 24.4259 41.768C24.4259 41.8379 24.4259 42.3456 24.3937 42.886C24.3154 45.2152 21.769 46.8921 19.5127 47.684C25.2962 57.8717 38.2261 58.072 44.4654 48.2896Z" fill="#FED9C0"/>
<path fill-rule="evenodd" clip-rule="evenodd" d="M40.0395 45.7078C32.7894 46.6659 25.2462 41.2674 23.9409 36.9883H23.9684L24.0096 37.0666H24.0417C24.0417 37.0666 24.0417 37.1081 24.0737 37.1311L24.1058 37.191H24.1333L24.1745 37.2601V37.2831L24.2066 37.3384H24.234C24.2519 37.3612 24.2673 37.3859 24.2798 37.4121H24.3165L24.3531 37.472L24.3898 37.5319H24.4218L24.4539 37.5825H24.4859L24.518 37.6332H24.7882L24.8248 37.6839H24.8661L24.8981 37.7345H24.9348L24.9806 37.799L25.0126 37.8451L25.0447 37.8865H25.2462L25.2737 37.928V37.951H25.3057L25.3515 38.0063V38.0293L25.3836 38.0708H25.434L25.4615 38.103L25.4935 38.1445L25.5256 38.1813L25.5576 38.2136H25.5943L25.6309 38.255V38.2827H25.6767L25.7088 38.3195V38.3472H25.75L25.7775 38.3794L25.805 38.407H26.1622L26.1897 38.4347H26.2217L26.2538 38.4669L26.2859 38.5038L26.3179 38.5314H26.3546L26.3912 38.5636H26.4141L26.4416 38.5913H26.4874L26.5194 38.6189H26.5469L26.579 38.6465H26.6019L26.6339 38.6742H26.6843L26.721 38.7064H26.7576H26.8171H26.84H26.9042H26.927L26.9591 38.7295H26.9912H27.0186H27.0461L27.0782 38.7525L27.1194 38.7847H27.1927L27.2385 38.8124H27.266H27.2934H27.3301H27.3621H27.4446H27.4721H27.5637H27.5911H27.6598H27.6873H27.724H27.7743H27.8064H27.8385H27.8659H27.898H27.9346H27.9667H27.9942H28.0217H28.0537H28.9102H28.956H28.9926H29.043H29.1208H29.1666H29.1941H29.2262H29.2811H29.3498H29.3911H29.4277H29.4643H29.4964H29.5285H29.5743H29.6292H29.6659H29.6933H29.7575H29.8216H29.8949H29.9498H30.0094H30.0781H30.2017H30.2842H30.3254H30.4536H30.7192C34.7359 38.8999 37.5022 36.8962 39.1739 33.7456C39.0594 35.0906 39.2196 35.7878 39.2288 37.0453C39.2316 38.008 39.2036 37.8863 39.2036 39.0638C39.2036 39.7367 39.2036 40.9142 39.2288 43.4374L39.3708 44.6148L40.0395 45.7078Z" fill="#EFC2A2"/>
<path fill-rule="evenodd" clip-rule="evenodd" d="M61.7535 60.2043C61.2065 57.6246 60.2285 55.4411 57.7116 53.7552C53.3035 50.8254 44.6913 48.688 41.4884 46.7901C38.0213 57.316 23.4112 55.0818 21.6034 46.6243C17.8118 48.0062 7.69785 50.3694 3.82283 53.8473C2.82627 54.7456 1.91777 57.4173 1.66747 58.4815L1 62.7471C4.62909 67.455 9.3462 71.2246 14.752 73.7366C20.1577 76.2487 26.0929 77.4293 32.0551 77.1785C38.0173 76.9277 43.8309 75.2528 49.0037 72.2957C54.1766 69.3386 58.5562 65.1863 61.772 60.1905L61.7535 60.2043Z" fill="#C5B5B7"/>
<path fill-rule="evenodd" clip-rule="evenodd" d="M30.8199 42.596C34.9393 42.6787 37.7684 40.6803 39.4856 37.5427C40.0952 36.4023 40.5585 35.1926 40.865 33.941C40.865 33.2519 41.0809 32.1585 41.1794 30.6885C41.2294 29.6934 41.3867 28.7064 41.6486 27.7437L41.5453 27.8678C41.2792 24.8374 40.7518 21.8345 39.9689 18.8912C39.0305 18.1377 37.8857 16.5942 28.0799 16.8744C26.9679 16.5391 23.8244 18.8682 23.7868 18.9279C23.2193 19.9246 22.8425 21.0144 22.6749 22.1437C21.7365 27.4267 22.2057 25.9429 21.8867 27.877C21.7575 27.763 21.6367 27.6402 21.5254 27.5094C21.5254 27.6335 21.5488 27.7575 21.5629 27.8815C21.7764 28.7744 21.9037 29.685 21.943 30.6012C21.9899 31.4005 22.0743 32.085 22.14 32.6547C22.4738 34.1941 23.015 35.6833 23.7493 37.0833C25.4008 40.198 27.9391 42.5455 30.8199 42.596Z" fill="#FED9C0"/>
<path fill-rule="evenodd" clip-rule="evenodd" d="M21.4553 27.227L21.5623 27.3416C21.6727 27.4721 21.7924 27.5947 21.9205 27.7084C22.2322 25.7781 21.753 27.2499 22.7021 21.9863C22.8683 20.8592 23.2419 19.7715 23.8047 18.7768C24.4513 17.768 39.5942 20.5833 39.6221 20.6108C40.0362 21.8212 40.841 25.2737 41.4039 27.6855L41.5063 27.5617C41.8273 26.5163 42.2972 25.8606 42.9345 25.9019C42.9962 25.9075 43.057 25.9198 43.116 25.9386C43.2864 23.6803 43.3035 21.4133 43.1671 19.1527C43.2416 12.3577 35.5282 9.68922 29.9967 10.0285C20.283 10.6291 18.4779 17.1766 19.9806 25.9248C20.8645 25.9248 21.246 26.553 21.4739 27.227H21.4553Z" fill="#545A71"/>
<path fill-rule="evenodd" clip-rule="evenodd" d="M22.6395 32.5714C22.5747 32.0217 22.4801 31.3612 22.4353 30.5898C22.3911 29.7059 22.256 28.8274 22.0318 27.9654C21.982 27.8014 21.9322 27.6462 21.8774 27.4955C21.5487 26.6089 21.0755 26.0725 20.4479 26.0991C20.2891 26.109 20.1361 26.1565 20.0047 26.2365C19.1181 26.7596 18.7794 28.7146 19.5066 30.5588C20.3284 32.6823 20.8265 34.6062 22.0268 34.5486C22.8437 34.5043 22.7989 33.826 22.6395 32.5714Z" fill="#FED9C0"/>
<path fill-rule="evenodd" clip-rule="evenodd" d="M43.0822 26.1373C43.0269 26.1182 42.9699 26.1057 42.912 26.1C42.3144 26.058 41.8738 26.7252 41.5728 27.7889C41.3293 28.7666 41.1831 29.769 41.1366 30.7796C41.045 32.2725 40.8312 33.3829 40.8443 34.0828C40.8443 34.624 41.0101 34.9179 41.4681 34.9506C42.5238 35.0206 42.9775 33.005 43.719 30.7516C44.3996 28.6987 44.0113 26.4453 43.0822 26.1373Z" fill="#FED9C0"/>
</g>
</svg>
